<svg height="512" viewBox="0 0 64 64" width="512" xmlns="http://www.w3.org/2000/svg"><g id="file-graph-website-report-Digital_Marketing" data-name="file-graph-website-report-Digital Marketing"><path d="m38.1 26 .78-7h-2.88v7z"/><path d="m32 15.72v-3.44l-2 .5v2.44z"/><path d="m34 11h6v6h-6z"/><path d="m35 50h2v5h-2z"/><path d="m46 20.85-5.11-1.83-.9 8.09a.989.989 0 0 1 -.99.89h-4a1 1 0 0 1 -1-1v-8h-1a1 1 0 0 1 -1-1v-.22l-3.24-.81a1 1 0 0 1 -.76-.97v-4a1 1 0 0 1 .76-.97l3.24-.81v-.22a1 1 0 0 1 1-1h7.83l5.17-1.85v-3.15h-31v10a1 1 0 0 1 -1 1h-10v41h21v-25a1 1 0 0 1 1-1h20zm-37 29.15h-2v-2h2zm13 0h-11v-2h11zm0-4h-15v-2h15zm0-4h-15v-2h15zm-7-5a8 8 0 0 1 0-16 1 1 0 0 1 1 1v6h6a1 1 0 0 1 1 1 8.009 8.009 0 0 1 -8 8zm10-10h-7a1 1 0 0 1 -1-1v-7a1 1 0 0 1 1-1 8.009 8.009 0 0 1 8 8 1 1 0 0 1 -1 1z"/><path d="m42 10.7v6.6l12 4.28v-5.58h1a2 2 0 0 0 0-4h-1v-5.58z"/><path d="m13 5.41-7.59 7.59h7.59z"/><path d="m27 32v4h32v-4zm4 3h-2v-2h2zm4 0h-2v-2h2zm4 0h-2v-2h2z"/><path d="m27 60h32v-22h-32zm4-5h2v-6a1 1 0 0 1 1-1h4a1 1 0 0 1 1 1v6h1v-9a1 1 0 0 1 1-1h4a1 1 0 0 1 1 1v9h1v-13a1 1 0 0 1 1-1h4a1 1 0 0 1 1 1v13h2v2h-24z"/><path d="m42 47h2v8h-2z"/><path d="m19 20.083v4.917h4.917a6.017 6.017 0 0 0 -4.917-4.917z"/><path d="m49 43h2v12h-2z"/><path d="m14 29v-5.917a6 6 0 1 0 6.917 6.917h-5.917a1 1 0 0 1 -1-1z"/></g></svg>