<svg id="Capa_1" enable-background="new 0 0 512 512" height="512" viewBox="0 0 512 512" width="512" xmlns="http://www.w3.org/2000/svg"><g id="Market_1_"><g><path d="m0 482h512v30h-512z"/></g><g><path d="m31 270h30v182h-30z"/></g><g><path d="m91 330h30v122h-30z"/></g><g><path d="m151 360h30v92h-30z"/></g><g><path d="m211 360h30v92h-30z"/></g><g><path d="m271 330h30v122h-30z"/></g><g><path d="m331 270h30v182h-30z"/></g><g><path d="m391 300h30v152h-30z"/></g><g><path d="m451 210h30v242h-30z"/></g><g><path d="m196 330c-74.443 0-135-60.557-135-135s60.557-135 135-135h15v120h120v15c0 74.443-60.557 135-135 135z"/></g><g><path d="m391 150h-150v-150h15c74.443 0 135 60.557 135 135z"/></g></g></svg>